<svg width="158" height="30" viewBox="0 0 158 30" fill="none" xmlns="http://www.w3.org/2000/svg">
<path d="M19.8789 15.8555C19.625 11.1094 16.0312 7.61328 10.3672 7.61328C4.09766 7.61328 0.09375 11.793 0.09375 18.5117C0.09375 25.3477 4.09766 29.4492 10.4062 29.4492C15.9141 29.4492 19.6055 26.2656 19.8984 21.3242H14.5859C14.2344 23.6094 12.75 24.9766 10.4648 24.9766C7.63281 24.9766 5.875 22.6328 5.875 18.5117C5.875 14.4688 7.63281 12.0859 10.4453 12.0859C12.7891 12.0859 14.2539 13.6484 14.5859 15.8555H19.8789ZM30.7383 25.2109C28.8047 25.2109 27.5156 24.2344 27.5156 22.6719C27.5156 21.1875 28.7266 20.2305 30.8555 20.0742L35.2695 19.8008V21.3242C35.2695 23.5898 33.2188 25.2109 30.7383 25.2109ZM28.8633 29.332C31.4805 29.332 34.0781 28.0234 35.25 25.7969H35.3672V29H40.875V14.6055C40.875 10.3867 37.3789 7.61328 32.0078 7.61328C26.4609 7.61328 23.0039 10.4062 22.7891 14.4688H28.0039C28.2773 12.9258 29.625 11.8711 31.7539 11.8711C33.9023 11.8711 35.2695 13.0039 35.2695 14.957V16.3438L29.9961 16.6562C24.7812 16.9688 21.8516 19.1758 21.8516 22.9844C21.8516 26.7539 24.8789 29.332 28.8633 29.332ZM44.7031 29H50.4062V0.816406H44.7031V29ZM63.6484 11.832C66.1875 11.832 67.9258 13.668 68.043 16.3438H59.1562C59.3516 13.7266 61.1484 11.832 63.6484 11.832ZM68.1211 22.5938C67.5938 24.1953 65.9922 25.2305 63.9023 25.2305C60.9922 25.2305 59.0977 23.1797 59.0977 20.1914V19.8398H73.5312V18.1016C73.5312 11.7344 69.6836 7.61328 63.5898 7.61328C57.3984 7.61328 53.4922 11.9492 53.4922 18.6289C53.4922 25.3281 57.3594 29.4492 63.8047 29.4492C68.9805 29.4492 72.7305 26.6953 73.3555 22.5938H68.1211ZM76.4805 29H82.1836V16.9883C82.1836 14.2734 83.8047 12.3984 86.3633 12.3984C88.9219 12.3984 90.2109 13.9609 90.2109 16.6953V29H95.9141V15.5039C95.9141 10.6016 93.2969 7.67188 88.6484 7.67188C85.4258 7.67188 83.2188 9.19531 82.1055 11.793H81.9883V8.0625H76.4805V29ZM107.301 29.332C110.387 29.332 112.809 27.7109 113.824 25.4062H113.922V29H119.547V0.816406H113.844V11.6562H113.727C112.711 9.33203 110.367 7.73047 107.34 7.73047C102.086 7.73047 98.7656 11.8516 98.7656 18.4922C98.7656 25.1914 102.066 29.332 107.301 29.332ZM109.234 12.3008C112.066 12.3008 113.883 14.7227 113.883 18.5312C113.883 22.3594 112.066 24.7422 109.234 24.7422C106.363 24.7422 104.605 22.3789 104.605 18.5312C104.605 14.7031 106.363 12.3008 109.234 12.3008ZM131.441 25.2109C129.508 25.2109 128.219 24.2344 128.219 22.6719C128.219 21.1875 129.43 20.2305 131.559 20.0742L135.973 19.8008V21.3242C135.973 23.5898 133.922 25.2109 131.441 25.2109ZM129.566 29.332C132.184 29.332 134.781 28.0234 135.953 25.7969H136.07V29H141.578V14.6055C141.578 10.3867 138.082 7.61328 132.711 7.61328C127.164 7.61328 123.707 10.4062 123.492 14.4688H128.707C128.98 12.9258 130.328 11.8711 132.457 11.8711C134.605 11.8711 135.973 13.0039 135.973 14.957V16.3438L130.699 16.6562C125.484 16.9688 122.555 19.1758 122.555 22.9844C122.555 26.7539 125.582 29.332 129.566 29.332ZM145.27 29H150.973V17.3008C150.973 14.3516 152.613 12.6328 155.426 12.6328C156.246 12.6328 157.027 12.7695 157.496 12.9648V7.94531C157.105 7.82812 156.539 7.73047 155.875 7.73047C153.414 7.73047 151.637 9.17578 150.895 11.832H150.777V8.0625H145.27V29Z" fill="#E3E8FF"/>
</svg>
